<svg width="25" height="12" viewBox="0 0 25 12" fill="none" xmlns="http://www.w3.org/2000/svg">
<path d="M0 6.03015C0 6.27136 0.142858 6.45226 0.285715 6.63316C0.500001 6.81407 0.714286 6.87437 1 6.87437H21.4286L16.9286 10.5528C16.7143 10.7337 16.6429 10.9146 16.6429 11.1558C16.6429 11.397 16.7857 11.5779 16.9286 11.7588C17.1429 11.9397 17.3571 12 17.6429 12C17.9286 12 18.2143 11.9397 18.3571 11.7588L24.7143 6.63316C24.7857 6.57286 24.8571 6.45226 24.9286 6.33166C25 6.21105 25 6.09045 25 6.03015C25 5.90955 25 5.78894 24.9286 5.72864C24.8571 5.60804 24.7857 5.54774 24.7143 5.42713L18.4286 0.241206C18.2143 0.0603013 18 0 17.7143 0C17.4286 0 17.2143 0.120603 17 0.241206C16.7857 0.42211 16.7143 0.603015 16.7143 0.844221C16.7143 1.08543 16.7857 1.26633 17 1.44724L21.5 5.12563H1.07143C0.785714 5.12563 0.499999 5.24623 0.357141 5.36683C0.142856 5.60804 0 5.78894 0 6.03015Z" fill="#1F1F1F"/>
</svg>
