<svg width="962" height="962" viewBox="0 0 962 962" fill="none" xmlns="http://www.w3.org/2000/svg">
<circle cx="1.99585" cy="1.99585" r="1.99585" transform="matrix(-1 0 0 1 3.9917 0)" fill="white"/>
<circle cx="1.99585" cy="1.99585" r="1.99585" transform="matrix(-1 0 0 1 3.9917 79.834)" fill="white"/>
<circle cx="1.99585" cy="1.99585" r="1.99585" transform="matrix(-1 0 0 1 3.9917 159.668)" fill="white"/>
<circle cx="1.99585" cy="1.99585" r="1.99585" transform="matrix(-1 0 0 1 3.9917 239.502)" fill="white"/>
<circle cx="1.99585" cy="1.99585" r="1.99585" transform="matrix(-1 0 0 1 3.9917 319.336)" fill="white"/>
<circle cx="1.99585" cy="1.99585" r="1.99585" transform="matrix(-1 0 0 1 3.9917 399.171)" fill="white"/>
<circle cx="1.99585" cy="1.99585" r="1.99585" transform="matrix(-1 0 0 1 3.9917 479.004)" fill="white"/>
<circle cx="1.99585" cy="1.99585" r="1.99585" transform="matrix(-1 0 0 1 3.9917 558.838)" fill="white"/>
<circle cx="1.99585" cy="1.99585" r="1.99585" transform="matrix(-1 0 0 1 3.9917 638.673)" fill="white"/>
<circle cx="1.99585" cy="1.99585" r="1.99585" transform="matrix(-1 0 0 1 3.9917 718.506)" fill="white"/>
<circle cx="1.99585" cy="1.99585" r="1.99585" transform="matrix(-1 0 0 1 3.9917 798.341)" fill="white"/>
<circle cx="1.99585" cy="1.99585" r="1.99585" transform="matrix(-1 0 0 1 3.9917 878.175)" fill="white"/>
<circle cx="1.99585" cy="1.99585" r="1.99585" transform="matrix(-1 0 0 1 3.9917 958.008)" fill="white"/>
<circle cx="1.99585" cy="1.99585" r="1.99585" transform="matrix(-1 0 0 1 83.8257 0)" fill="white"/>
<circle cx="1.99585" cy="1.99585" r="1.99585" transform="matrix(-1 0 0 1 83.8257 79.834)" fill="white"/>
<circle cx="1.99585" cy="1.99585" r="1.99585" transform="matrix(-1 0 0 1 83.8257 159.668)" fill="white"/>
<circle cx="1.99585" cy="1.99585" r="1.99585" transform="matrix(-1 0 0 1 83.8257 239.502)" fill="white"/>
<circle cx="1.99585" cy="1.99585" r="1.99585" transform="matrix(-1 0 0 1 83.8257 319.336)" fill="white"/>
<circle cx="1.99585" cy="1.99585" r="1.99585" transform="matrix(-1 0 0 1 83.8257 399.171)" fill="white"/>
<circle cx="1.99585" cy="1.99585" r="1.99585" transform="matrix(-1 0 0 1 83.8257 479.004)" fill="white"/>
<circle cx="1.99585" cy="1.99585" r="1.99585" transform="matrix(-1 0 0 1 83.8257 558.838)" fill="white"/>
<circle cx="1.99585" cy="1.99585" r="1.99585" transform="matrix(-1 0 0 1 83.8257 638.673)" fill="white"/>
<circle cx="1.99585" cy="1.99585" r="1.99585" transform="matrix(-1 0 0 1 83.8257 718.506)" fill="white"/>
<circle cx="1.99585" cy="1.99585" r="1.99585" transform="matrix(-1 0 0 1 83.8257 798.341)" fill="white"/>
<circle cx="1.99585" cy="1.99585" r="1.99585" transform="matrix(-1 0 0 1 83.8257 878.175)" fill="white"/>
<circle cx="1.99585" cy="1.99585" r="1.99585" transform="matrix(-1 0 0 1 83.8257 958.008)" fill="white"/>
<circle cx="1.99585" cy="1.99585" r="1.99585" transform="matrix(-1 0 0 1 163.66 0)" fill="white"/>
<circle cx="1.99585" cy="1.99585" r="1.99585" transform="matrix(-1 0 0 1 163.66 79.834)" fill="white"/>
<circle cx="1.99585" cy="1.99585" r="1.99585" transform="matrix(-1 0 0 1 163.66 159.668)" fill="white"/>
<circle cx="1.99585" cy="1.99585" r="1.99585" transform="matrix(-1 0 0 1 163.66 239.502)" fill="white"/>
<circle cx="1.99585" cy="1.99585" r="1.99585" transform="matrix(-1 0 0 1 163.66 319.336)" fill="white"/>
<circle cx="1.99585" cy="1.99585" r="1.99585" transform="matrix(-1 0 0 1 163.66 399.171)" fill="white"/>
<circle cx="1.99585" cy="1.99585" r="1.99585" transform="matrix(-1 0 0 1 163.66 479.004)" fill="white"/>
<circle cx="1.99585" cy="1.99585" r="1.99585" transform="matrix(-1 0 0 1 163.66 558.838)" fill="white"/>
<circle cx="1.99585" cy="1.99585" r="1.99585" transform="matrix(-1 0 0 1 163.66 638.673)" fill="white"/>
<circle cx="1.99585" cy="1.99585" r="1.99585" transform="matrix(-1 0 0 1 163.66 718.506)" fill="white"/>
<circle cx="1.99585" cy="1.99585" r="1.99585" transform="matrix(-1 0 0 1 163.66 798.341)" fill="white"/>
<circle cx="1.99585" cy="1.99585" r="1.99585" transform="matrix(-1 0 0 1 163.66 878.175)" fill="white"/>
<circle cx="1.99585" cy="1.99585" r="1.99585" transform="matrix(-1 0 0 1 163.66 958.008)" fill="white"/>
<circle cx="1.99585" cy="1.99585" r="1.99585" transform="matrix(-1 0 0 1 243.494 0)" fill="white"/>
<circle cx="1.99585" cy="1.99585" r="1.99585" transform="matrix(-1 0 0 1 243.494 79.834)" fill="white"/>
<circle cx="1.99585" cy="1.99585" r="1.99585" transform="matrix(-1 0 0 1 243.494 159.668)" fill="white"/>
<circle cx="1.99585" cy="1.99585" r="1.99585" transform="matrix(-1 0 0 1 243.494 239.502)" fill="white"/>
<circle cx="1.99585" cy="1.99585" r="1.99585" transform="matrix(-1 0 0 1 243.494 319.336)" fill="white"/>
<circle cx="1.99585" cy="1.99585" r="1.99585" transform="matrix(-1 0 0 1 243.494 399.171)" fill="white"/>
<circle cx="1.99585" cy="1.99585" r="1.99585" transform="matrix(-1 0 0 1 243.494 479.004)" fill="white"/>
<circle cx="1.99585" cy="1.99585" r="1.99585" transform="matrix(-1 0 0 1 243.494 558.838)" fill="white"/>
<circle cx="1.99585" cy="1.99585" r="1.99585" transform="matrix(-1 0 0 1 243.494 638.673)" fill="white"/>
<circle cx="1.99585" cy="1.99585" r="1.99585" transform="matrix(-1 0 0 1 243.494 718.506)" fill="white"/>
<circle cx="1.99585" cy="1.99585" r="1.99585" transform="matrix(-1 0 0 1 243.494 798.341)" fill="white"/>
<circle cx="1.99585" cy="1.99585" r="1.99585" transform="matrix(-1 0 0 1 243.494 878.175)" fill="white"/>
<circle cx="1.99585" cy="1.99585" r="1.99585" transform="matrix(-1 0 0 1 243.494 958.008)" fill="white"/>
<circle cx="1.99585" cy="1.99585" r="1.99585" transform="matrix(-1 0 0 1 323.328 0)" fill="white"/>
<circle cx="1.99585" cy="1.99585" r="1.99585" transform="matrix(-1 0 0 1 323.328 79.834)" fill="white"/>
<circle cx="1.99585" cy="1.99585" r="1.99585" transform="matrix(-1 0 0 1 323.328 159.668)" fill="white"/>
<circle cx="1.99585" cy="1.99585" r="1.99585" transform="matrix(-1 0 0 1 323.328 239.502)" fill="white"/>
<circle cx="1.99585" cy="1.99585" r="1.99585" transform="matrix(-1 0 0 1 323.328 319.336)" fill="white"/>
<circle cx="1.99585" cy="1.99585" r="1.99585" transform="matrix(-1 0 0 1 323.328 399.171)" fill="white"/>
<circle cx="1.99585" cy="1.99585" r="1.99585" transform="matrix(-1 0 0 1 323.328 479.004)" fill="white"/>
<circle cx="1.99585" cy="1.99585" r="1.99585" transform="matrix(-1 0 0 1 323.328 558.838)" fill="white"/>
<circle cx="1.99585" cy="1.99585" r="1.99585" transform="matrix(-1 0 0 1 323.328 638.673)" fill="white"/>
<circle cx="1.99585" cy="1.99585" r="1.99585" transform="matrix(-1 0 0 1 323.328 718.506)" fill="white"/>
<circle cx="1.99585" cy="1.99585" r="1.99585" transform="matrix(-1 0 0 1 323.328 798.341)" fill="white"/>
<circle cx="1.99585" cy="1.99585" r="1.99585" transform="matrix(-1 0 0 1 323.328 878.175)" fill="white"/>
<circle cx="1.99585" cy="1.99585" r="1.99585" transform="matrix(-1 0 0 1 323.328 958.008)" fill="white"/>
<circle cx="1.99585" cy="1.99585" r="1.99585" transform="matrix(-1 0 0 1 403.162 0)" fill="white"/>
<circle cx="1.99585" cy="1.99585" r="1.99585" transform="matrix(-1 0 0 1 403.162 79.834)" fill="white"/>
<circle cx="1.99585" cy="1.99585" r="1.99585" transform="matrix(-1 0 0 1 403.162 159.668)" fill="white"/>
<circle cx="1.99585" cy="1.99585" r="1.99585" transform="matrix(-1 0 0 1 403.162 239.502)" fill="white"/>
<circle cx="1.99585" cy="1.99585" r="1.99585" transform="matrix(-1 0 0 1 403.162 319.336)" fill="white"/>
<circle cx="1.99585" cy="1.99585" r="1.99585" transform="matrix(-1 0 0 1 403.162 399.171)" fill="white"/>
<circle cx="1.99585" cy="1.99585" r="1.99585" transform="matrix(-1 0 0 1 403.162 479.004)" fill="white"/>
<circle cx="1.99585" cy="1.99585" r="1.99585" transform="matrix(-1 0 0 1 403.162 558.838)" fill="white"/>
<circle cx="1.99585" cy="1.99585" r="1.99585" transform="matrix(-1 0 0 1 403.162 638.673)" fill="white"/>
<circle cx="1.99585" cy="1.99585" r="1.99585" transform="matrix(-1 0 0 1 403.162 718.506)" fill="white"/>
<circle cx="1.99585" cy="1.99585" r="1.99585" transform="matrix(-1 0 0 1 403.162 798.341)" fill="white"/>
<circle cx="1.99585" cy="1.99585" r="1.99585" transform="matrix(-1 0 0 1 403.162 878.175)" fill="white"/>
<circle cx="1.99585" cy="1.99585" r="1.99585" transform="matrix(-1 0 0 1 403.162 958.008)" fill="white"/>
<circle cx="1.99585" cy="1.99585" r="1.99585" transform="matrix(-1 0 0 1 482.996 0)" fill="white"/>
<circle cx="1.99585" cy="1.99585" r="1.99585" transform="matrix(-1 0 0 1 482.996 79.834)" fill="white"/>
<circle cx="1.99585" cy="1.99585" r="1.99585" transform="matrix(-1 0 0 1 482.996 159.668)" fill="white"/>
<circle cx="1.99585" cy="1.99585" r="1.99585" transform="matrix(-1 0 0 1 482.996 239.502)" fill="white"/>
<circle cx="1.99585" cy="1.99585" r="1.99585" transform="matrix(-1 0 0 1 482.996 319.336)" fill="white"/>
<circle cx="1.99585" cy="1.99585" r="1.99585" transform="matrix(-1 0 0 1 482.996 399.171)" fill="white"/>
<circle cx="1.99585" cy="1.99585" r="1.99585" transform="matrix(-1 0 0 1 482.996 479.004)" fill="white"/>
<circle cx="1.99585" cy="1.99585" r="1.99585" transform="matrix(-1 0 0 1 482.996 558.838)" fill="white"/>
<circle cx="1.99585" cy="1.99585" r="1.99585" transform="matrix(-1 0 0 1 482.996 638.673)" fill="white"/>
<circle cx="1.99585" cy="1.99585" r="1.99585" transform="matrix(-1 0 0 1 482.996 718.506)" fill="white"/>
<circle cx="1.99585" cy="1.99585" r="1.99585" transform="matrix(-1 0 0 1 482.996 798.341)" fill="white"/>
<circle cx="1.99585" cy="1.99585" r="1.99585" transform="matrix(-1 0 0 1 482.996 878.175)" fill="white"/>
<circle cx="1.99585" cy="1.99585" r="1.99585" transform="matrix(-1 0 0 1 482.996 958.008)" fill="white"/>
<circle cx="1.99585" cy="1.99585" r="1.99585" transform="matrix(-1 0 0 1 562.83 0)" fill="white"/>
<circle cx="1.99585" cy="1.99585" r="1.99585" transform="matrix(-1 0 0 1 562.83 79.834)" fill="white"/>
<circle cx="1.99585" cy="1.99585" r="1.99585" transform="matrix(-1 0 0 1 562.83 159.668)" fill="white"/>
<circle cx="1.99585" cy="1.99585" r="1.99585" transform="matrix(-1 0 0 1 562.83 239.502)" fill="white"/>
<circle cx="1.99585" cy="1.99585" r="1.99585" transform="matrix(-1 0 0 1 562.83 319.336)" fill="white"/>
<circle cx="1.99585" cy="1.99585" r="1.99585" transform="matrix(-1 0 0 1 562.83 399.171)" fill="white"/>
<circle cx="1.99585" cy="1.99585" r="1.99585" transform="matrix(-1 0 0 1 562.83 479.004)" fill="white"/>
<circle cx="1.99585" cy="1.99585" r="1.99585" transform="matrix(-1 0 0 1 562.83 558.838)" fill="white"/>
<circle cx="1.99585" cy="1.99585" r="1.99585" transform="matrix(-1 0 0 1 562.83 638.673)" fill="white"/>
<circle cx="1.99585" cy="1.99585" r="1.99585" transform="matrix(-1 0 0 1 562.83 718.506)" fill="white"/>
<circle cx="1.99585" cy="1.99585" r="1.99585" transform="matrix(-1 0 0 1 562.83 798.341)" fill="white"/>
<circle cx="1.99585" cy="1.99585" r="1.99585" transform="matrix(-1 0 0 1 562.83 878.175)" fill="white"/>
<circle cx="1.99585" cy="1.99585" r="1.99585" transform="matrix(-1 0 0 1 562.83 958.008)" fill="white"/>
<circle cx="1.99585" cy="1.99585" r="1.99585" transform="matrix(-1 0 0 1 642.664 0)" fill="white"/>
<circle cx="1.99585" cy="1.99585" r="1.99585" transform="matrix(-1 0 0 1 642.664 79.834)" fill="white"/>
<circle cx="1.99585" cy="1.99585" r="1.99585" transform="matrix(-1 0 0 1 642.664 159.668)" fill="white"/>
<circle cx="1.99585" cy="1.99585" r="1.99585" transform="matrix(-1 0 0 1 642.664 239.502)" fill="white"/>
<circle cx="1.99585" cy="1.99585" r="1.99585" transform="matrix(-1 0 0 1 642.664 319.336)" fill="white"/>
<circle cx="1.99585" cy="1.99585" r="1.99585" transform="matrix(-1 0 0 1 642.664 399.171)" fill="white"/>
<circle cx="1.99585" cy="1.99585" r="1.99585" transform="matrix(-1 0 0 1 642.664 479.004)" fill="white"/>
<circle cx="1.99585" cy="1.99585" r="1.99585" transform="matrix(-1 0 0 1 642.664 558.838)" fill="white"/>
<circle cx="1.99585" cy="1.99585" r="1.99585" transform="matrix(-1 0 0 1 642.664 638.673)" fill="white"/>
<circle cx="1.99585" cy="1.99585" r="1.99585" transform="matrix(-1 0 0 1 642.664 718.506)" fill="white"/>
<circle cx="1.99585" cy="1.99585" r="1.99585" transform="matrix(-1 0 0 1 642.664 798.341)" fill="white"/>
<circle cx="1.99585" cy="1.99585" r="1.99585" transform="matrix(-1 0 0 1 642.664 878.175)" fill="white"/>
<circle cx="1.99585" cy="1.99585" r="1.99585" transform="matrix(-1 0 0 1 642.664 958.008)" fill="white"/>
<circle cx="1.99585" cy="1.99585" r="1.99585" transform="matrix(-1 0 0 1 722.498 0)" fill="white"/>
<circle cx="1.99585" cy="1.99585" r="1.99585" transform="matrix(-1 0 0 1 722.498 79.834)" fill="white"/>
<circle cx="1.99585" cy="1.99585" r="1.99585" transform="matrix(-1 0 0 1 722.498 159.668)" fill="white"/>
<circle cx="1.99585" cy="1.99585" r="1.99585" transform="matrix(-1 0 0 1 722.498 239.502)" fill="white"/>
<circle cx="1.99585" cy="1.99585" r="1.99585" transform="matrix(-1 0 0 1 722.498 319.336)" fill="white"/>
<circle cx="1.99585" cy="1.99585" r="1.99585" transform="matrix(-1 0 0 1 722.498 399.171)" fill="white"/>
<circle cx="1.99585" cy="1.99585" r="1.99585" transform="matrix(-1 0 0 1 722.498 479.004)" fill="white"/>
<circle cx="1.99585" cy="1.99585" r="1.99585" transform="matrix(-1 0 0 1 722.498 558.838)" fill="white"/>
<circle cx="1.99585" cy="1.99585" r="1.99585" transform="matrix(-1 0 0 1 722.498 638.673)" fill="white"/>
<circle cx="1.99585" cy="1.99585" r="1.99585" transform="matrix(-1 0 0 1 722.498 718.506)" fill="white"/>
<circle cx="1.99585" cy="1.99585" r="1.99585" transform="matrix(-1 0 0 1 722.498 798.341)" fill="white"/>
<circle cx="1.99585" cy="1.99585" r="1.99585" transform="matrix(-1 0 0 1 722.498 878.175)" fill="white"/>
<circle cx="1.99585" cy="1.99585" r="1.99585" transform="matrix(-1 0 0 1 722.498 958.008)" fill="white"/>
<circle cx="1.99585" cy="1.99585" r="1.99585" transform="matrix(-1 0 0 1 802.332 0)" fill="white"/>
<circle cx="1.99585" cy="1.99585" r="1.99585" transform="matrix(-1 0 0 1 802.332 79.834)" fill="white"/>
<circle cx="1.99585" cy="1.99585" r="1.99585" transform="matrix(-1 0 0 1 802.332 159.668)" fill="white"/>
<circle cx="1.99585" cy="1.99585" r="1.99585" transform="matrix(-1 0 0 1 802.332 239.502)" fill="white"/>
<circle cx="1.99585" cy="1.99585" r="1.99585" transform="matrix(-1 0 0 1 802.332 319.336)" fill="white"/>
<circle cx="1.99585" cy="1.99585" r="1.99585" transform="matrix(-1 0 0 1 802.332 399.171)" fill="white"/>
<circle cx="1.99585" cy="1.99585" r="1.99585" transform="matrix(-1 0 0 1 802.332 479.004)" fill="white"/>
<circle cx="1.99585" cy="1.99585" r="1.99585" transform="matrix(-1 0 0 1 802.332 558.838)" fill="white"/>
<circle cx="1.99585" cy="1.99585" r="1.99585" transform="matrix(-1 0 0 1 802.332 638.673)" fill="white"/>
<circle cx="1.99585" cy="1.99585" r="1.99585" transform="matrix(-1 0 0 1 802.332 718.506)" fill="white"/>
<circle cx="1.99585" cy="1.99585" r="1.99585" transform="matrix(-1 0 0 1 802.332 798.341)" fill="white"/>
<circle cx="1.99585" cy="1.99585" r="1.99585" transform="matrix(-1 0 0 1 802.332 878.175)" fill="white"/>
<circle cx="1.99585" cy="1.99585" r="1.99585" transform="matrix(-1 0 0 1 802.332 958.008)" fill="white"/>
<circle cx="1.99585" cy="1.99585" r="1.99585" transform="matrix(-1 0 0 1 882.167 0)" fill="white"/>
<circle cx="1.99585" cy="1.99585" r="1.99585" transform="matrix(-1 0 0 1 882.167 79.834)" fill="white"/>
<circle cx="1.99585" cy="1.99585" r="1.99585" transform="matrix(-1 0 0 1 882.167 159.668)" fill="white"/>
<circle cx="1.99585" cy="1.99585" r="1.99585" transform="matrix(-1 0 0 1 882.167 239.502)" fill="white"/>
<circle cx="1.99585" cy="1.99585" r="1.99585" transform="matrix(-1 0 0 1 882.167 319.336)" fill="white"/>
<circle cx="1.99585" cy="1.99585" r="1.99585" transform="matrix(-1 0 0 1 882.167 399.171)" fill="white"/>
<circle cx="1.99585" cy="1.99585" r="1.99585" transform="matrix(-1 0 0 1 882.167 479.004)" fill="white"/>
<circle cx="1.99585" cy="1.99585" r="1.99585" transform="matrix(-1 0 0 1 882.167 558.838)" fill="white"/>
<circle cx="1.99585" cy="1.99585" r="1.99585" transform="matrix(-1 0 0 1 882.167 638.673)" fill="white"/>
<circle cx="1.99585" cy="1.99585" r="1.99585" transform="matrix(-1 0 0 1 882.167 718.506)" fill="white"/>
<circle cx="1.99585" cy="1.99585" r="1.99585" transform="matrix(-1 0 0 1 882.167 798.341)" fill="white"/>
<circle cx="1.99585" cy="1.99585" r="1.99585" transform="matrix(-1 0 0 1 882.167 878.175)" fill="white"/>
<circle cx="1.99585" cy="1.99585" r="1.99585" transform="matrix(-1 0 0 1 882.167 958.008)" fill="white"/>
<circle cx="1.99585" cy="1.99585" r="1.99585" transform="matrix(-1 0 0 1 962 0)" fill="white"/>
<circle cx="1.99585" cy="1.99585" r="1.99585" transform="matrix(-1 0 0 1 962 79.834)" fill="white"/>
<circle cx="1.99585" cy="1.99585" r="1.99585" transform="matrix(-1 0 0 1 962 159.668)" fill="white"/>
<circle cx="1.99585" cy="1.99585" r="1.99585" transform="matrix(-1 0 0 1 962 239.502)" fill="white"/>
<circle cx="1.99585" cy="1.99585" r="1.99585" transform="matrix(-1 0 0 1 962 319.336)" fill="white"/>
<circle cx="1.99585" cy="1.99585" r="1.99585" transform="matrix(-1 0 0 1 962 399.171)" fill="white"/>
<circle cx="1.99585" cy="1.99585" r="1.99585" transform="matrix(-1 0 0 1 962 479.004)" fill="white"/>
<circle cx="1.99585" cy="1.99585" r="1.99585" transform="matrix(-1 0 0 1 962 558.838)" fill="white"/>
<circle cx="1.99585" cy="1.99585" r="1.99585" transform="matrix(-1 0 0 1 962 638.673)" fill="white"/>
<circle cx="1.99585" cy="1.99585" r="1.99585" transform="matrix(-1 0 0 1 962 718.506)" fill="white"/>
<circle cx="1.99585" cy="1.99585" r="1.99585" transform="matrix(-1 0 0 1 962 798.341)" fill="white"/>
<circle cx="1.99585" cy="1.99585" r="1.99585" transform="matrix(-1 0 0 1 962 878.175)" fill="white"/>
<circle cx="1.99585" cy="1.99585" r="1.99585" transform="matrix(-1 0 0 1 962 958.008)" fill="white"/>
</svg>
