<svg width="123" height="123" viewBox="0 0 123 123" fill="none" xmlns="http://www.w3.org/2000/svg">
<g clip-path="url(#clip0_3102_3515)">
<rect width="123" height="123" rx="29" fill="url(#paint0_linear_3102_3515)"/>
<path fill-rule="evenodd" clip-rule="evenodd" d="M33.9227 28.5535H86.881C91.0593 28.5535 94.4465 31.6317 94.4465 35.4288V87.5244C94.4465 92.2863 89.2485 95.6063 84.3184 93.9933L78.4107 92.0605C76.5646 91.4566 74.5327 91.528 72.7435 92.2597L63.5064 96.0372C61.532 96.8446 59.2716 96.8446 57.2972 96.0372L48.0602 92.2597C46.271 91.528 44.239 91.4566 42.393 92.0605L36.4852 93.9933C31.5551 95.6063 26.3572 92.2863 26.3572 87.5244V35.4288C26.3572 31.6317 29.7444 28.5535 33.9227 28.5535ZM45.2709 43.1636C43.704 43.1636 42.4338 44.3179 42.4338 45.7418C42.4338 47.1657 43.704 48.3201 45.2709 48.3201H60.4018C61.9687 48.3201 63.2389 47.1657 63.2389 45.7418C63.2389 44.3179 61.9687 43.1636 60.4018 43.1636H45.2709ZM45.2709 56.9142C43.704 56.9142 42.4338 58.0685 42.4338 59.4925C42.4338 60.9164 43.704 62.0707 45.2709 62.0707H75.5328C77.0996 62.0707 78.3698 60.9164 78.3698 59.4925C78.3698 58.0685 77.0996 56.9142 75.5328 56.9142H45.2709ZM45.2709 70.6649C43.704 70.6649 42.4338 71.8192 42.4338 73.2431C42.4338 74.6671 43.704 75.8214 45.2709 75.8214H75.5328C77.0996 75.8214 78.3698 74.6671 78.3698 73.2431C78.3698 71.8192 77.0996 70.6649 75.5328 70.6649H45.2709Z" fill="white"/>
<path fill-rule="evenodd" clip-rule="evenodd" d="M35.5655 29H88.5238C92.7021 29 96.0893 32.0782 96.0893 35.8753V87.9709C96.0893 92.7328 90.8914 96.0528 85.9612 94.4398L80.0535 92.5071C78.2075 91.9031 76.1755 91.9745 74.3863 92.7062L65.1492 96.4837C63.1749 97.2911 60.9144 97.2911 58.94 96.4837L49.703 92.7062C47.9138 91.9745 45.8818 91.9031 44.0358 92.5071L38.1281 94.4398C33.1979 96.0528 28 92.7328 28 87.9709V35.8753C28 32.0782 31.3872 29 35.5655 29ZM46.9137 43.6101C45.3468 43.6101 44.0766 44.7644 44.0766 46.1883C44.0766 47.6123 45.3468 48.7666 46.9137 48.7666H62.0446C63.6115 48.7666 64.8817 47.6123 64.8817 46.1883C64.8817 44.7644 63.6115 43.6101 62.0446 43.6101H46.9137ZM46.9137 57.3608C45.3468 57.3608 44.0766 58.5151 44.0766 59.939C44.0766 61.3629 45.3468 62.5173 46.9137 62.5173H77.1756C78.7425 62.5173 80.0126 61.3629 80.0126 59.939C80.0126 58.5151 78.7425 57.3608 77.1756 57.3608H46.9137ZM46.9137 71.1114C45.3468 71.1114 44.0766 72.2657 44.0766 73.6897C44.0766 75.1136 45.3468 76.2679 46.9137 76.2679H77.1756C78.7425 76.2679 80.0126 75.1136 80.0126 73.6897C80.0126 72.2657 78.7425 71.1114 77.1756 71.1114H46.9137Z" fill="white"/>
</g>
<defs>
<linearGradient id="paint0_linear_3102_3515" x1="161.437" y1="38.4375" x2="61.5" y2="123" gradientUnits="userSpaceOnUse">
<stop stop-color="#5F79B7"/>
<stop offset="0.546234" stop-color="#3C5299"/>
<stop offset="0.803636" stop-color="#2B3F8A"/>
</linearGradient>
<clipPath id="clip0_3102_3515">
<rect width="123" height="123" fill="white"/>
</clipPath>
</defs>
</svg>
