<svg width="123" height="123" viewBox="0 0 123 123" fill="none" xmlns="http://www.w3.org/2000/svg">
<g clip-path="url(#clip0_3102_3509)">
<rect width="123" height="123" rx="29" fill="url(#paint0_linear_3102_3509)"/>
<path fill-rule="evenodd" clip-rule="evenodd" d="M43.2912 23.2061C44.8497 22.6173 46.6184 23.3332 47.2418 24.8051C47.8652 26.277 47.1071 27.9475 45.5487 28.5363L44.871 28.7923C39.5794 30.7914 35.3583 34.7123 33.1538 39.6761L32.8426 40.3768C32.1933 41.8387 30.4122 42.5267 28.8644 41.9135C27.3166 41.3003 26.5881 39.6181 27.2374 38.1562L27.5486 37.4555C30.383 31.0734 35.8101 26.0324 42.6136 23.4621L43.2912 23.2061ZM80.0716 23.3753C78.5131 22.7865 76.7444 23.5024 76.121 24.9743C75.4976 26.4462 76.2557 28.1167 77.8141 28.7055L78.4917 28.9615C83.7834 30.9606 88.0045 34.8814 90.209 39.8452L90.5202 40.546C91.1695 42.0079 92.9506 42.6959 94.4984 42.0827C96.0462 41.4695 96.7747 39.7873 96.1254 38.3254L95.8142 37.6246C92.9799 31.2426 87.5527 26.2016 80.7492 23.6313L80.0716 23.3753ZM38.2708 84.4423H85.092C92.501 84.4423 96.7302 77.4035 92.2848 72.4712C90.3168 70.2876 89.104 67.6977 88.7776 64.9818L86.9655 49.9022C85.9884 41.7711 79.5613 35.0985 70.8798 32.2911V31.8942C70.8798 27.0961 66.7615 23.2066 61.6814 23.2066C56.6013 23.2066 52.483 27.0961 52.483 31.8942V32.2911C43.8015 35.0985 37.3744 41.7711 36.3972 49.9022L34.5851 64.9818C34.2588 67.6977 33.0459 70.2876 31.0779 72.4712C26.6325 77.4035 30.8617 84.4423 38.2708 84.4423ZM73.725 92.3705C71.8716 96.6864 67.1783 99.7512 61.6814 99.7512C56.1844 99.7512 51.4911 96.6864 49.6377 92.3705C49.5604 92.1905 49.5246 91.9973 49.5246 91.803C49.5246 90.9079 50.293 90.1822 51.2407 90.1822H72.122C73.0698 90.1822 73.8381 90.9079 73.8381 91.803C73.8381 91.9973 73.8023 92.1905 73.725 92.3705Z" fill="white"/>
</g>
<defs>
<linearGradient id="paint0_linear_3102_3509" x1="161.437" y1="38.4375" x2="61.5" y2="123" gradientUnits="userSpaceOnUse">
<stop stop-color="#5F79B7"/>
<stop offset="0.546234" stop-color="#3C5299"/>
<stop offset="0.803636" stop-color="#2B3F8A"/>
</linearGradient>
<clipPath id="clip0_3102_3509">
<rect width="123" height="123" fill="white"/>
</clipPath>
</defs>
</svg>
