<svg width="123" height="123" viewBox="0 0 123 123" fill="none" xmlns="http://www.w3.org/2000/svg">
<g clip-path="url(#clip0_3102_3426)">
<rect width="123" height="123" rx="29" fill="url(#paint0_linear_3102_3426)"/>
<path fill-rule="evenodd" clip-rule="evenodd" d="M61.5 34.9494L64.323 31.5795C72.1186 22.2736 84.7577 22.2736 92.5533 31.5795C100.349 40.8853 100.349 55.973 92.5533 65.2789L67.1461 95.6084C64.0278 99.3307 58.9722 99.3307 55.8539 95.6084L30.4467 65.2789C22.6511 55.9731 22.6511 40.8853 30.4467 31.5795C38.2423 22.2736 50.8814 22.2736 58.677 31.5795L61.5 34.9494ZM79.95 33.8251C78.4216 33.8251 77.1825 35.2018 77.1825 36.9001C77.1825 38.5984 78.4216 39.9751 79.95 39.9751C82.4974 39.9751 84.5625 42.2696 84.5625 45.1001C84.5625 46.7984 85.8016 48.1751 87.33 48.1751C88.8585 48.1751 90.0975 46.7984 90.0975 45.1001C90.0975 38.8731 85.5543 33.8251 79.95 33.8251Z" fill="white"/>
</g>
<defs>
<linearGradient id="paint0_linear_3102_3426" x1="161.437" y1="38.4375" x2="61.5" y2="123" gradientUnits="userSpaceOnUse">
<stop stop-color="#5F79B7"/>
<stop offset="0.546234" stop-color="#3C5299"/>
<stop offset="0.803636" stop-color="#2B3F8A"/>
</linearGradient>
<clipPath id="clip0_3102_3426">
<rect width="123" height="123" fill="white"/>
</clipPath>
</defs>
</svg>
