<svg width="131" height="131" viewBox="0 0 131 131" fill="none" xmlns="http://www.w3.org/2000/svg">
<g filter="url(#filter0_d_1121_3438)">
<rect x="4" width="123" height="123" rx="29" fill="url(#paint0_linear_1121_3438)"/>
</g>
<path fill-rule="evenodd" clip-rule="evenodd" d="M86.9897 58.0626C86.9897 70.7249 76.7249 80.9897 64.0626 80.9897C51.4003 80.9897 41.1355 70.7249 41.1355 58.0626C41.1355 45.4003 51.4003 35.1355 64.0626 35.1355C76.7249 35.1355 86.9897 45.4003 86.9897 58.0626ZM64.0626 85.4272C79.1756 85.4272 91.4272 73.1756 91.4272 58.0626C91.4272 42.9495 79.1756 30.698 64.0626 30.698C48.9495 30.698 36.698 42.9495 36.698 58.0626C36.698 73.1756 48.9495 85.4272 64.0626 85.4272ZM96.3726 90.3725C94.0914 92.6537 90.3928 92.6537 88.1116 90.3725L82.5709 84.8319C85.796 82.5978 88.5979 79.796 90.8319 76.5709L96.3726 82.1116C98.6538 84.3928 98.6538 88.0913 96.3726 90.3725Z" fill="white"/>
<defs>
<filter id="filter0_d_1121_3438" x="0" y="0" width="131" height="131" filterUnits="userSpaceOnUse" color-interpolation-filters="sRGB">
<feFlood flood-opacity="0" result="BackgroundImageFix"/>
<feColorMatrix in="SourceAlpha" type="matrix" values="0 0 0 0 0 0 0 0 0 0 0 0 0 0 0 0 0 0 127 0" result="hardAlpha"/>
<feOffset dy="4"/>
<feGaussianBlur stdDeviation="2"/>
<feComposite in2="hardAlpha" operator="out"/>
<feColorMatrix type="matrix" values="0 0 0 0 0 0 0 0 0 0 0 0 0 0 0 0 0 0 0.25 0"/>
<feBlend mode="normal" in2="BackgroundImageFix" result="effect1_dropShadow_1121_3438"/>
<feBlend mode="normal" in="SourceGraphic" in2="effect1_dropShadow_1121_3438" result="shape"/>
</filter>
<linearGradient id="paint0_linear_1121_3438" x1="165.437" y1="38.4375" x2="65.5" y2="123" gradientUnits="userSpaceOnUse">
<stop stop-color="#5F79B7"/>
<stop offset="0.546234" stop-color="#3C5299"/>
<stop offset="0.803636" stop-color="#2B3F8A"/>
</linearGradient>
</defs>
</svg>
