<svg width="30" height="30" viewBox="0 0 30 30" fill="none" xmlns="http://www.w3.org/2000/svg">
<g clip-path="url(#clip0_29_731)">
<path d="M15 30C23.2843 30 30 23.2843 30 15C30 6.71573 23.2843 0 15 0C6.71573 0 0 6.71573 0 15C0 23.2843 6.71573 30 15 30Z" fill="#1F1F1F"/>
<path d="M20.8464 11.9819L14.9995 17.6719L9.15264 11.9819C8.93165 11.7667 8.57221 11.7667 8.34857 11.9819C8.12491 12.197 8.12758 12.5469 8.34857 12.7648L14.5975 18.8488C14.8185 19.0639 15.1779 19.0639 15.4015 18.8488L21.6505 12.7621C21.7623 12.6532 21.8182 12.5133 21.8182 12.3707C21.8182 12.2281 21.7623 12.0881 21.6505 11.9793C21.4268 11.7641 21.0674 11.7641 20.8464 11.9819Z" fill="white"/>
</g>
<defs>
<clipPath id="clip0_29_731">
<rect width="30" height="30" fill="white"/>
</clipPath>
</defs>
</svg>
