<svg width="123" height="123" viewBox="0 0 123 123" fill="none" xmlns="http://www.w3.org/2000/svg">
<g clip-path="url(#clip0_3102_3516)">
<rect width="123" height="123" rx="29" fill="url(#paint0_linear_3102_3516)"/>
<path fill-rule="evenodd" clip-rule="evenodd" d="M64.9406 22.6156C64.9406 21.171 63.5681 20 61.875 20C60.1819 20 58.8094 21.171 58.8094 22.6156V29.5906C58.8094 31.0351 60.1819 32.2062 61.875 32.2062C63.5681 32.2062 64.9406 31.0351 64.9406 29.5906V22.6156ZM27.2552 31.2285C26.058 30.2071 24.117 30.2071 22.9198 31.2285C21.7226 32.25 21.7226 33.9061 22.9198 34.9275L29.051 40.1587C30.2482 41.1802 32.1893 41.1802 33.3865 40.1587C34.5837 39.1373 34.5837 37.4812 33.3865 36.4597L27.2552 31.2285ZM100.83 34.9275C102.027 33.9061 102.027 32.25 100.83 31.2285C99.633 30.2071 97.692 30.2071 96.4948 31.2285L90.3635 36.4597C89.1663 37.4812 89.1663 39.1373 90.3635 40.1587C91.5607 41.1802 93.5018 41.1802 94.699 40.1587L100.83 34.9275ZM98.1605 55.9951C104.28 60.993 104.28 69.6823 98.1605 74.6802C89.7247 81.57 76.6072 89.75 61.875 89.75C47.1428 89.75 34.0253 81.5701 25.5895 74.6802C19.4702 69.6823 19.4702 60.993 25.5895 55.9951C34.0253 49.1053 47.1428 40.9253 61.875 40.9253C76.6072 40.9253 89.7247 49.1053 98.1605 55.9951ZM74.1374 65.3377C74.1374 71.1159 68.6473 75.8001 61.8749 75.8001C55.1025 75.8001 49.6124 71.1159 49.6124 65.3377C49.6124 59.5594 55.1025 54.8752 61.8749 54.8752C68.6473 54.8752 74.1374 59.5594 74.1374 65.3377Z" fill="white"/>
</g>
<defs>
<linearGradient id="paint0_linear_3102_3516" x1="161.437" y1="38.4375" x2="61.5" y2="123" gradientUnits="userSpaceOnUse">
<stop stop-color="#5F79B7"/>
<stop offset="0.546234" stop-color="#3C5299"/>
<stop offset="0.803636" stop-color="#2B3F8A"/>
</linearGradient>
<clipPath id="clip0_3102_3516">
<rect width="123" height="123" fill="white"/>
</clipPath>
</defs>
</svg>
