<svg width="123" height="123" viewBox="0 0 123 123" fill="none" xmlns="http://www.w3.org/2000/svg">
<g clip-path="url(#clip0_3102_3514)">
<rect width="123" height="123" rx="29" fill="url(#paint0_linear_3102_3514)"/>
<path fill-rule="evenodd" clip-rule="evenodd" d="M24.525 27C20.9213 27 18 29.5245 18 32.6386C18 35.7526 20.9213 38.2771 24.525 38.2771H98.475C102.079 38.2771 105 35.7526 105 32.6386C105 29.5245 102.079 27 98.475 27H24.525ZM100.65 43.9157H22.35V79.6265C22.35 83.7786 26.2451 87.1446 31.05 87.1446H58.2375V102.181C58.2375 103.738 59.6982 105 61.5 105C63.3018 105 64.7625 103.738 64.7625 102.181V87.1446H91.95C96.7549 87.1446 100.65 83.7786 100.65 79.6265V43.9157ZM81.6975 58.5232C82.6246 57.1881 82.1236 55.4563 80.5785 54.6552C79.0335 53.8541 77.0294 54.287 76.1024 55.6222L71.3946 62.4026C69.7868 64.7182 65.9998 64.9383 64.0476 62.8296C59.2548 57.6525 49.9575 58.1929 46.0102 63.878L41.3024 70.6583C40.3754 71.9935 40.8764 73.7253 42.4214 74.5264C43.9665 75.3275 45.9705 74.8945 46.8975 73.5594L51.6053 66.779C53.2131 64.4633 57.0002 64.2432 58.9524 66.352C63.7452 71.529 73.0425 70.9886 76.9898 65.3036L81.6975 58.5232Z" fill="white"/>
</g>
<defs>
<linearGradient id="paint0_linear_3102_3514" x1="161.437" y1="38.4375" x2="61.5" y2="123" gradientUnits="userSpaceOnUse">
<stop stop-color="#5F79B7"/>
<stop offset="0.546234" stop-color="#3C5299"/>
<stop offset="0.803636" stop-color="#2B3F8A"/>
</linearGradient>
<clipPath id="clip0_3102_3514">
<rect width="123" height="123" fill="white"/>
</clipPath>
</defs>
</svg>
