<svg width="131" height="131" viewBox="0 0 131 131" fill="none" xmlns="http://www.w3.org/2000/svg">
<g filter="url(#filter0_d_1181_3468)">
<rect x="4" width="123" height="123" rx="29" fill="url(#paint0_linear_1181_3468)"/>
</g>
<path fill-rule="evenodd" clip-rule="evenodd" d="M93.6915 71.531C97.714 76.2565 93.8872 82.9999 87.1831 82.9999H44.8171C38.113 82.9999 34.2862 76.2565 38.3086 71.531C40.0894 69.4391 41.1868 66.9578 41.4821 64.3559L43.1218 49.9089C44.0059 42.1189 49.8215 35.7263 57.6769 33.0367V32.6564C57.6769 28.0596 61.4033 24.3333 66.0001 24.3333C70.5968 24.3333 74.3232 28.0596 74.3232 32.6564V33.0367C82.1787 35.7263 87.9942 42.1189 88.8784 49.9089L90.5181 64.3559C90.8134 66.9578 91.9108 69.4391 93.6915 71.531ZM76.8978 90.5954C75.2208 94.7303 70.974 97.6666 66.0001 97.6666C61.0261 97.6666 56.7794 94.7303 55.1024 90.5954C55.0324 90.423 55.0001 90.238 55.0001 90.052C55.0001 89.1948 55.695 88.4999 56.5521 88.4999H75.448C76.3052 88.4999 77.0001 89.1948 77.0001 90.052C77.0001 90.238 76.9677 90.423 76.8978 90.5954Z" fill="white"/>
<defs>
<filter id="filter0_d_1181_3468" x="0" y="0" width="131" height="131" filterUnits="userSpaceOnUse" color-interpolation-filters="sRGB">
<feFlood flood-opacity="0" result="BackgroundImageFix"/>
<feColorMatrix in="SourceAlpha" type="matrix" values="0 0 0 0 0 0 0 0 0 0 0 0 0 0 0 0 0 0 127 0" result="hardAlpha"/>
<feOffset dy="4"/>
<feGaussianBlur stdDeviation="2"/>
<feComposite in2="hardAlpha" operator="out"/>
<feColorMatrix type="matrix" values="0 0 0 0 0 0 0 0 0 0 0 0 0 0 0 0 0 0 0.25 0"/>
<feBlend mode="normal" in2="BackgroundImageFix" result="effect1_dropShadow_1181_3468"/>
<feBlend mode="normal" in="SourceGraphic" in2="effect1_dropShadow_1181_3468" result="shape"/>
</filter>
<linearGradient id="paint0_linear_1181_3468" x1="165.437" y1="38.4375" x2="65.5" y2="123" gradientUnits="userSpaceOnUse">
<stop stop-color="#5F79B7"/>
<stop offset="0.546234" stop-color="#3C5299"/>
<stop offset="0.803636" stop-color="#2B3F8A"/>
</linearGradient>
</defs>
</svg>
