<svg width="123" height="123" viewBox="0 0 123 123" fill="none" xmlns="http://www.w3.org/2000/svg">
<g clip-path="url(#clip0_3102_3513)">
<rect width="123" height="123" rx="29" fill="url(#paint0_linear_3102_3513)"/>
<path fill-rule="evenodd" clip-rule="evenodd" d="M61.5 98C81.6584 98 98 81.6584 98 61.5C98 41.3416 81.6584 25 61.5 25C41.3416 25 25 41.3416 25 61.5C25 81.6584 41.3416 98 61.5 98ZM52.3551 70.392C51.2249 69.4004 49.5044 69.5059 48.504 70.6313C47.4996 71.7613 47.6013 73.4916 48.7313 74.4961L49.7353 75.2676C50.3278 75.6798 51.1779 76.2115 52.2643 76.7383C54.4373 77.7918 57.5827 78.8375 61.5 78.8375C65.4174 78.8375 68.5628 77.7918 70.7357 76.7383C71.8221 76.2115 72.6723 75.6798 73.2648 75.2676C73.5615 75.0612 73.7951 74.8837 73.9629 74.7504L74.2687 74.4961C75.3987 73.4916 75.5005 71.7613 74.4961 70.6313C73.4956 69.5059 71.7751 69.4004 70.6449 70.392L70.1382 70.7731C69.7469 71.0453 69.1428 71.426 68.3471 71.8118C66.7561 72.5832 64.4264 73.3625 61.5 73.3625C58.5736 73.3625 56.244 72.5832 54.6529 71.8118C53.8573 71.426 53.2531 71.0453 52.8619 70.7731L52.3551 70.392ZM79.75 54.2C79.75 56.2158 78.1158 57.85 76.1 57.85C74.0842 57.85 72.45 56.2158 72.45 54.2C72.45 52.1842 74.0842 50.55 76.1 50.55C78.1158 50.55 79.75 52.1842 79.75 54.2ZM46.9 57.85C48.9158 57.85 50.55 56.2158 50.55 54.2C50.55 52.1842 48.9158 50.55 46.9 50.55C44.8842 50.55 43.25 52.1842 43.25 54.2C43.25 56.2158 44.8842 57.85 46.9 57.85Z" fill="white"/>
</g>
<defs>
<linearGradient id="paint0_linear_3102_3513" x1="161.437" y1="38.4375" x2="61.5" y2="123" gradientUnits="userSpaceOnUse">
<stop stop-color="#5F79B7"/>
<stop offset="0.546234" stop-color="#3C5299"/>
<stop offset="0.803636" stop-color="#2B3F8A"/>
</linearGradient>
<clipPath id="clip0_3102_3513">
<rect width="123" height="123" fill="white"/>
</clipPath>
</defs>
</svg>
