<svg width="131" height="131" viewBox="0 0 131 131" fill="none" xmlns="http://www.w3.org/2000/svg">
<g filter="url(#filter0_d_1175_3486)">
<rect x="4" width="123" height="123" rx="29" fill="url(#paint0_linear_1175_3486)"/>
</g>
<path fill-rule="evenodd" clip-rule="evenodd" d="M51.2813 39.8334C51.2813 37.9637 52.797 36.448 54.6667 36.448H87.1667C89.0365 36.448 90.5522 37.9637 90.5522 39.8334V56.0834C90.5522 57.9531 89.0365 59.4688 87.1667 59.4688H84.4584C83.3366 59.4688 82.4272 60.3783 82.4272 61.5001C82.4272 62.6219 83.3366 63.5313 84.4584 63.5313H87.1667C91.2801 63.5313 94.6147 60.1968 94.6147 56.0834V39.8334C94.6147 35.72 91.2801 32.3855 87.1667 32.3855H54.6667C50.5534 32.3855 47.2188 35.72 47.2188 39.8334V43.8959C47.2188 45.0177 48.1283 45.9272 49.2501 45.9272C50.3719 45.9272 51.2813 45.0177 51.2813 43.8959V39.8334ZM51.9584 56.0834C51.9584 59.075 49.5333 61.5001 46.5417 61.5001C43.5502 61.5001 41.1251 59.075 41.1251 56.0834C41.1251 53.0919 43.5502 50.6667 46.5417 50.6667C49.5333 50.6667 51.9584 53.0919 51.9584 56.0834ZM80.7504 54.4737C81.3571 53.5301 81.0839 52.2733 80.1402 51.6667C79.1965 51.06 77.9398 51.3333 77.3331 52.2769L66.7959 68.6682C65.7151 68.3109 64.4875 68.4229 63.4493 69.0835L54.6667 73.6876V72.3334C54.6667 67.8461 51.0291 64.2084 46.5417 64.2084C42.0544 64.2084 38.4167 67.8461 38.4167 72.3334V88.5834H54.6667V82.3C55.3801 82.1937 56.0844 81.9422 56.7366 81.5345L67.6433 75.7335C68.9499 74.9169 69.6131 73.456 69.473 72.0164L80.7504 54.4737ZM58.0522 45.2501C58.0522 44.1283 58.9616 43.2188 60.0834 43.2188H81.7501C82.8719 43.2188 83.7813 44.1283 83.7813 45.2501C83.7813 46.3719 82.8719 47.2813 81.7501 47.2813H60.0834C58.9616 47.2813 58.0522 46.3719 58.0522 45.2501ZM60.0834 51.3438C58.9616 51.3438 58.0522 52.2533 58.0522 53.3751C58.0522 54.4969 58.9616 55.4063 60.0834 55.4063H70.9167C72.0386 55.4063 72.948 54.4969 72.948 53.3751C72.948 52.2533 72.0386 51.3438 70.9167 51.3438H60.0834Z" fill="white"/>
<defs>
<filter id="filter0_d_1175_3486" x="0" y="0" width="131" height="131" filterUnits="userSpaceOnUse" color-interpolation-filters="sRGB">
<feFlood flood-opacity="0" result="BackgroundImageFix"/>
<feColorMatrix in="SourceAlpha" type="matrix" values="0 0 0 0 0 0 0 0 0 0 0 0 0 0 0 0 0 0 127 0" result="hardAlpha"/>
<feOffset dy="4"/>
<feGaussianBlur stdDeviation="2"/>
<feComposite in2="hardAlpha" operator="out"/>
<feColorMatrix type="matrix" values="0 0 0 0 0 0 0 0 0 0 0 0 0 0 0 0 0 0 0.25 0"/>
<feBlend mode="normal" in2="BackgroundImageFix" result="effect1_dropShadow_1175_3486"/>
<feBlend mode="normal" in="SourceGraphic" in2="effect1_dropShadow_1175_3486" result="shape"/>
</filter>
<linearGradient id="paint0_linear_1175_3486" x1="165.437" y1="38.4375" x2="65.5" y2="123" gradientUnits="userSpaceOnUse">
<stop stop-color="#5F79B7"/>
<stop offset="0.546234" stop-color="#3C5299"/>
<stop offset="0.803636" stop-color="#2B3F8A"/>
</linearGradient>
</defs>
</svg>
