<svg width="123" height="123" viewBox="0 0 123 123" fill="none" xmlns="http://www.w3.org/2000/svg">
<g clip-path="url(#clip0_3102_3517)">
<rect width="123" height="123" rx="29" fill="url(#paint0_linear_3102_3517)"/>
<path fill-rule="evenodd" clip-rule="evenodd" d="M59.2857 21.9161C59.2857 20.3056 57.885 19 56.1571 19C54.4292 19 53.0285 20.3056 53.0285 21.9161V29.6923C53.0285 31.3028 54.4292 32.6084 56.1571 32.6084C57.885 32.6084 59.2857 31.3028 59.2857 29.6923V21.9161ZM75.9714 33.5803C75.9714 31.9698 74.5707 30.6642 72.8428 30.6642C71.1149 30.6642 69.7142 31.9698 69.7142 33.5803V41.3565C69.7142 42.967 71.1149 44.2726 72.8428 44.2726C74.5707 44.2726 75.9714 42.967 75.9714 41.3565V33.5803ZM44.538 40.2626C46.1936 39.8018 47.135 38.1773 46.6406 36.6341C46.1463 35.0909 44.4034 34.2134 42.7478 34.6742C38.7316 35.7919 35.2155 37.2656 32.6335 39.092C30.0938 40.8884 28 43.3765 28 46.513C28 61.4186 36.413 74.4693 48.8571 80.5634V91.9442C48.8571 99.8825 57.8553 104.98 65.4512 101.464L73.7941 97.6025C77.6772 95.805 80.1429 92.1229 80.1429 88.0823V80.5634C92.5871 74.4693 101 61.4186 101 46.513C101 43.3765 98.9062 40.8884 96.3665 39.092C93.7845 37.2656 90.2684 35.7919 86.2522 34.6742C84.5966 34.2134 82.8537 35.0909 82.3594 36.6341C81.865 38.1773 82.8064 39.8018 84.462 40.2626C88.0751 41.2681 90.8162 42.4874 92.584 43.7378C94.3941 45.0182 94.7429 45.9908 94.7429 46.513C94.7429 46.9714 94.4862 47.7632 93.1813 48.8343C91.8813 49.9013 89.8208 50.9952 87.0051 51.9727C81.3976 53.9195 73.4415 55.1827 64.5 55.1827C55.5585 55.1827 47.6024 53.9195 41.9949 51.9727C39.1792 50.9952 37.1187 49.9013 35.8187 48.8343C34.5138 47.7632 34.2571 46.9714 34.2571 46.513C34.2571 45.9908 34.6059 45.0182 36.416 43.7378C38.1838 42.4874 40.9249 41.2681 44.538 40.2626ZM56.1571 38.4405C57.885 38.4405 59.2857 39.7461 59.2857 41.3566V45.2447C59.2857 46.8552 57.885 48.1608 56.1571 48.1608C54.4292 48.1608 53.0285 46.8552 53.0285 45.2447V41.3566C53.0285 39.7461 54.4292 38.4405 56.1571 38.4405Z" fill="white"/>
</g>
<defs>
<linearGradient id="paint0_linear_3102_3517" x1="161.437" y1="38.4375" x2="61.5" y2="123" gradientUnits="userSpaceOnUse">
<stop stop-color="#5F79B7"/>
<stop offset="0.546234" stop-color="#3C5299"/>
<stop offset="0.803636" stop-color="#2B3F8A"/>
</linearGradient>
<clipPath id="clip0_3102_3517">
<rect width="123" height="123" fill="white"/>
</clipPath>
</defs>
</svg>
