<svg width="88" height="88" viewBox="0 0 88 88" fill="none" xmlns="http://www.w3.org/2000/svg">
<path fill-rule="evenodd" clip-rule="evenodd" d="M71.6915 54.531C75.714 59.2565 71.8872 65.9999 65.1831 65.9999H22.8171C16.113 65.9999 12.2862 59.2565 16.3086 54.531C18.0894 52.4391 19.1868 49.9578 19.4821 47.3559L21.1218 32.9089C22.0059 25.1189 27.8215 18.7263 35.6769 16.0367V15.6564C35.6769 11.0596 39.4033 7.33325 44.0001 7.33325C48.5968 7.33325 52.3232 11.0596 52.3232 15.6564V16.0367C60.1787 18.7263 65.9942 25.1189 66.8784 32.9089L68.5181 47.3559C68.8134 49.9578 69.9108 52.4391 71.6915 54.531ZM54.8978 73.5954C53.2208 77.7303 48.974 80.6666 44.0001 80.6666C39.0261 80.6666 34.7794 77.7303 33.1024 73.5954C33.0324 73.423 33.0001 73.238 33.0001 73.052C33.0001 72.1948 33.695 71.4999 34.5521 71.4999H53.448C54.3052 71.4999 55.0001 72.1948 55.0001 73.052C55.0001 73.238 54.9677 73.423 54.8978 73.5954Z" fill="white"/>
</svg>
