<svg width="61" height="61" viewBox="0 0 61 61" fill="none" xmlns="http://www.w3.org/2000/svg">
<circle cx="30.5" cy="30.5" r="29.5" stroke="white" stroke-width="2"/>
<path d="M17 30C16.4477 30 16 30.4477 16 31C16 31.5523 16.4477 32 17 32V30ZM45.7071 31.7071C46.0976 31.3166 46.0976 30.6834 45.7071 30.2929L39.3431 23.9289C38.9526 23.5384 38.3195 23.5384 37.9289 23.9289C37.5384 24.3195 37.5384 24.9526 37.9289 25.3431L43.5858 31L37.9289 36.6569C37.5384 37.0474 37.5384 37.6805 37.9289 38.0711C38.3195 38.4616 38.9526 38.4616 39.3431 38.0711L45.7071 31.7071ZM17 32H45V30H17V32Z" fill="white"/>
</svg>
